<svg width="1280" height="640" viewBox="0 0 1280 640" xmlns="http://www.w3.org/2000/svg">
  <defs>
    <symbol id="mark" viewBox="0 0 512 512">
      <g fill="none" stroke="#D97757" stroke-linecap="round">
        <g stroke-width="13" opacity="0.7">
          <path d="M238 122 Q 312 120 348 156"/>
          <path d="M348 156 Q 404 196 424 256"/>
        </g>
        <g stroke-width="24">
          <path d="M168 360 Q 176 206 238 122"/>
          <path d="M168 360 Q 248 232 348 156"/>
          <path d="M168 360 Q 300 304 424 256"/>
        </g>
      </g>
      <g fill="#D97757">
        <circle cx="238" cy="122" r="27"/>
        <circle cx="348" cy="156" r="27"/>
        <circle cx="424" cy="256" r="27"/>
      </g>
      <circle cx="168" cy="360" r="40" fill="#F4ECE2"/>
    </symbol>
  </defs>
  <rect width="1280" height="640" fill="#1B1A17"/>
  <rect x="120" y="168" width="304" height="304" rx="68" fill="#221F1B"/>
  <use href="#mark" x="120" y="168" width="304" height="304"/>
  <text x="484" y="276" font-family="Noto Sans" font-size="40" font-weight="500" letter-spacing="2" fill="#8A8078">github.com/wikiclaw/skills</text>
  <text x="482" y="372" font-family="Noto Sans" font-size="118" font-weight="800" letter-spacing="-3">
    <tspan fill="#F4ECE2">wiki</tspan><tspan fill="#D97757">claw</tspan>
  </text>
  <text x="484" y="438" font-family="Noto Sans" font-size="40" font-weight="400" fill="#C9A38F">Agent skills — ingest · lint · coverage</text>
</svg>
